HIERARCHY
ROOT Hips
{
	OFFSET 0.000000 0.000000 0.000000
	CHANNELS 6 Xposition Yposition Zposition Zrotation Xrotation Yrotation
	JOINT RightUpLeg
	{
		OFFSET -9.711200 0.000000 0.000000
		CHANNELS 3 Zrotation Xrotation Yrotation
		JOINT RightLeg
		{
			OFFSET 0.000000 -42.071800 0.000000
			CHANNELS 3 Zrotation Xrotation Yrotation
			JOINT RightFoot
			{
				OFFSET 0.000000 -40.121000 0.000000
				CHANNELS 3 Zrotation Xrotation Yrotation
				JOINT RightToe
				{
					OFFSET 0.000000 -9.631400 3.100600
					CHANNELS 3 Zrotation Xrotation Yrotation
					JOINT RightToeEnd
					{
						OFFSET 0.000000 -4.048200 4.118000
						CHANNELS 3 Zrotation Xrotation Yrotation
						End Site
						{
						    OFFSET 0.000000 -3.505200 3.565600
						}
					}
				}
			}
		}
	}
	JOINT LeftUpLeg
	{
		OFFSET 9.711200 0.000000 0.000000
		CHANNELS 3 Zrotation Xrotation Yrotation
		JOINT LeftLeg
		{
			OFFSET 0.000000 -42.071800 0.000000
			CHANNELS 3 Zrotation Xrotation Yrotation
			JOINT LeftFoot
			{
				OFFSET 0.000000 -40.121000 0.000000
				CHANNELS 3 Zrotation Xrotation Yrotation
				JOINT LeftToe
				{
					OFFSET 0.000000 -9.631400 3.100600
					CHANNELS 3 Zrotation Xrotation Yrotation
					JOINT LeftToeEnd
					{
						OFFSET 0.000000 -4.048200 4.118000
						CHANNELS 3 Zrotation Xrotation Yrotation
						End Site
						{
						    OFFSET 0.000000 -3.505200 3.565600
						}
					}
				}
			}
		}
	}
	JOINT Spine
	{
		OFFSET 0.000000 14.595200 0.000000
		CHANNELS 3 Zrotation Xrotation Yrotation
		JOINT Spine1
		{
			OFFSET 0.000000 9.770300 0.000000
			CHANNELS 3 Zrotation Xrotation Yrotation
			JOINT Spine2
			{
				OFFSET 0.000000 14.330100 0.000000
				CHANNELS 3 Zrotation Xrotation Yrotation
				JOINT LeftShoulder
				{
					OFFSET 2.000000 14.330100 0.000000
					CHANNELS 3 Zrotation Xrotation Yrotation
					JOINT LeftArm
					{
						OFFSET 14.369100 0.000000 0.000000
						CHANNELS 3 Zrotation Xrotation Yrotation
						JOINT LeftForeArm
						{
							OFFSET 0.000000 -27.196400 0.000000
							CHANNELS 3 Zrotation Xrotation Yrotation
							JOINT LeftHand
							{
								OFFSET 0.000000 -24.849000 0.000000
								CHANNELS 3 Zrotation Xrotation Yrotation
								JOINT LeftFinger0
								{
									OFFSET 0.000000 -7.367300 0.000000
									CHANNELS 3 Zrotation Xrotation Yrotation
									End Site
									{
									    OFFSET 0.000000 -5.000000 0.000000
									}
								}
							}
						}
					}
				}
				JOINT RightShoulder
				{
					OFFSET -2.000000 14.330100 0.000000
					CHANNELS 3 Zrotation Xrotation Yrotation
					JOINT RightArm
					{
						OFFSET -14.369100 0.000000 0.000000
						CHANNELS 3 Zrotation Xrotation Yrotation
						JOINT RightForeArm
						{
							OFFSET 0.000000 -27.196400 0.000000
							CHANNELS 3 Zrotation Xrotation Yrotation
							JOINT RightHand
							{
								OFFSET 0.000000 -24.849000 0.000000
								CHANNELS 3 Zrotation Xrotation Yrotation
								JOINT RightFinger0
								{
									OFFSET 0.000000 -7.367300 0.000000
									CHANNELS 3 Zrotation Xrotation Yrotation
									End Site
									{
									    OFFSET 0.000000 -5.000000 0.000000
									}
								}
							}
						}
					}
				}
				JOINT Neck
				{
					OFFSET 0.000000 14.330100 0.000000
					CHANNELS 3 Zrotation Xrotation Yrotation
					JOINT Head
					{
						OFFSET 0.000000 8.944300 0.000000
						CHANNELS 3 Zrotation Xrotation Yrotation
						JOINT HeadTip
						{
							OFFSET 0.000000 10.000000 0.000000
							CHANNELS 3 Zrotation Xrotation Yrotation
							End Site
							{
							    OFFSET 0.000000 5.000000 0.000000
							}
						}
					}
				}
			}
		}
	}
}
MOTION
Frames:	9
Frame Time:	0.033332
-143.493400 71.251700 -31.861900 4.960883 4.353127 148.520171 -33.309912 -23.439202 -18.774799 -0.000000 14.246114 -0.000000 -1.024286 -18.088665 -23.262053 -0.000000 17.565529 0.000000 -0.000000 0.000000 -0.000000 28.256482 -17.593734 18.033824 -0.000000 68.066988 -0.000000 1.069086 -80.907006 4.332788 -0.000000 1.499317 0.000000 -0.000000 -0.000000 -0.000000 0.411854 14.172049 -7.689782 -0.000000 4.727348 0.000000 -0.000000 0.000000 0.000000 -3.902894 0.000000 -1.393946 37.253568 -12.181421 -36.266843 180.000037 -68.006079 -180.000037 -6.889792 5.646248 -26.168682 -0.000000 0.000000 -0.000000 15.812281 0.000000 -1.264038 -33.122931 -3.878128 16.708515 -0.000064 -22.692065 -0.000013 -0.136023 10.706984 1.678282 0.000000 0.000000 -0.000000 -0.000000 0.000000 0.000000 21.896482 11.450630 -47.412282 -0.000000 0.000000 0.000000 
-143.596400 70.845200 -31.560300 5.383018 4.661067 149.282922 -33.529409 -23.455659 -18.853023 -0.000000 15.372001 -0.000000 -1.334793 -17.979502 -23.577679 -0.000000 18.354775 0.000000 -0.000000 -0.000000 -0.000000 28.612150 -18.402832 17.360599 -0.000000 69.247976 -0.000000 -0.645435 -80.975282 2.901803 -0.000000 1.217295 -0.000000 -0.000000 0.000000 0.000000 0.409143 14.348606 -7.738340 -0.000000 4.778920 -0.000000 0.000000 0.000000 0.000000 -3.897829 0.000000 -1.454720 38.010629 -12.551794 -36.139819 -180.000037 -68.095971 180.000037 -6.744416 5.485283 -26.148773 -0.000000 -0.000000 0.000000 15.852085 0.000000 -1.372272 -32.569400 -3.326565 16.693290 -0.000064 -22.741326 -0.000013 -0.165571 10.744360 1.658465 0.000000 -0.000000 -0.000000 0.000000 0.000000 0.000000 21.860744 11.550051 -47.968567 -0.000000 -0.000000 -0.000000 
-143.608800 70.390600 -31.251400 5.742248 5.160402 150.046495 -33.797984 -23.480684 -18.159305 0.000000 16.708511 -0.000000 -1.451426 -18.049230 -24.736993 -0.000000 18.485904 -0.000000 0.000000 0.000000 -0.000000 28.697580 -19.209933 16.355945 -0.000000 70.490183 0.000000 0.326436 -80.670991 4.372478 0.000000 1.039844 -0.000000 0.000000 0.000000 -0.000000 0.369557 14.685138 -7.628831 0.000000 4.747076 -0.000000 -0.000000 -0.000000 0.000000 -4.117983 -0.000000 -1.392944 38.822251 -13.117527 -35.867578 -180.000037 -68.456352 -180.000037 -6.662855 5.317341 -26.340242 0.000000 -0.000000 0.000000 15.597771 0.000000 -1.411154 -31.811869 -2.462306 16.557033 -0.000064 -22.903379 -0.000013 -0.124976 10.804061 1.679998 0.000000 -0.000000 -0.000000 -0.000000 -0.000000 0.000000 21.239951 11.802683 -48.751062 -0.000000 0.000000 -0.000000 
-143.551000 69.971600 -30.778800 5.917018 5.965389 150.310821 -33.983642 -24.068574 -16.679730 0.000000 18.345238 -0.000000 -2.480032 -17.930470 -25.419620 0.000000 19.022950 -0.000000 -0.000000 -0.000000 -0.000000 28.510520 -19.638620 15.504716 0.000000 71.468382 -0.000000 2.320944 -79.972298 7.020164 0.000000 0.811446 -0.000000 -0.000000 0.000000 0.000000 -0.431650 15.330538 -7.358896 0.000000 4.716409 0.000000 -0.000000 -0.000000 -0.000000 -3.520509 0.000000 -1.948388 38.420450 -13.514821 -34.308286 180.000037 -69.358811 -180.000037 -7.371380 5.100513 -25.452015 0.000000 -0.000000 0.000000 14.751459 -0.000000 -1.391611 -30.363136 -1.692043 16.796166 -0.000065 -23.250575 -0.000013 0.267550 10.577315 1.325511 0.000000 0.000000 -0.000000 -0.000000 -0.000000 -0.000000 19.877779 12.786392 -49.607901 -0.000000 -0.000000 -0.000000 
-143.352200 69.881300 -30.022100 5.857854 7.153172 150.079201 -33.783779 -24.293739 -14.699565 0.000000 18.383152 -0.000000 -3.853711 -16.837742 -25.373363 0.000000 19.420429 -0.000000 0.000000 -0.000000 -0.000000 27.898268 -19.117570 14.753907 0.000000 71.138873 -0.000000 3.121807 -79.088481 8.747671 -0.000000 0.984398 -0.000000 0.000000 -0.000000 -0.000000 -3.119524 16.029958 -7.945860 -0.000000 4.984572 0.000000 -0.000000 0.000000 -0.000000 -2.133220 -0.000000 -4.014133 36.059481 -17.190651 -30.801581 -180.000037 -72.702852 -180.000037 -9.473192 5.021382 -23.949695 0.000000 0.000000 0.000000 13.649359 -0.000000 -1.791496 -28.523478 -2.295498 20.011332 -0.000067 -23.636158 -0.000014 2.082057 10.534851 2.374774 -0.000000 -0.000000 -0.000000 -0.000000 0.000000 -0.000000 17.732309 16.211953 -51.052891 -0.000000 0.000000 -0.000000 
-142.826900 70.540300 -28.881300 6.323441 7.408908 148.660771 -32.596485 -23.709666 -17.368761 -0.000000 15.919028 -0.000000 -1.510223 -16.175216 -23.017108 -0.000000 19.482676 0.000000 0.000000 -0.000000 -0.000000 28.837056 -17.574576 15.513992 -0.000000 68.914103 -0.000000 0.023312 -77.418910 6.333741 0.000000 1.375732 0.000000 -0.000000 -0.000000 0.000000 -6.608551 15.858532 -9.150264 -0.000000 5.322616 -0.000000 -0.000000 -0.000000 0.000000 -3.068329 0.000000 -7.627986 35.766946 -25.356670 -25.718014 -180.000037 -79.152909 -180.000037 -8.463770 3.357960 -25.599620 0.000000 -0.000000 -0.000000 12.306107 -0.000000 -2.251829 -26.683441 -3.021984 24.869940 -0.000073 -25.761286 -0.000017 3.778892 10.244400 4.925380 -0.000000 -0.000000 0.000000 -0.000000 -0.000000 0.000000 14.607398 20.074639 -50.078544 -0.000000 -0.000000 -0.000000 
-141.771200 71.832900 -27.325400 7.699185 6.666663 144.726850 -30.000930 -23.253190 -26.124650 -0.000000 12.409780 -0.000000 0.694905 -17.393787 -21.057195 0.000000 17.872290 -0.000000 -0.000000 0.000000 -0.000000 32.093421 -13.909629 18.934794 0.000000 64.844272 -0.000000 -4.684312 -74.430658 2.188747 0.000000 1.560443 0.000000 0.000000 0.000000 -0.000000 -10.872044 15.803226 -10.877661 0.000000 4.809311 0.000000 0.000000 -0.000000 -0.000000 -4.051102 0.000000 -11.050236 37.151502 -32.169932 -16.251974 -180.000037 -84.147902 180.000037 -5.324204 1.896142 -31.092198 -0.000000 -0.000000 -0.000000 11.005625 0.000000 -2.322273 -25.039281 -4.426734 30.562466 -0.000084 -29.037842 -0.000022 6.088311 10.218366 8.333393 -0.000000 0.000000 -0.000000 0.000000 -0.000000 -0.000000 11.748038 18.967476 -46.287761 -0.000000 0.000000 -0.000000 
-140.268300 73.513400 -25.392100 8.960549 4.619785 139.066085 -26.529533 -24.698053 -31.268831 0.000000 11.270974 -0.000000 2.751542 -25.997020 -19.399761 -0.000000 16.530596 -0.000000 -0.000000 -0.000000 0.000000 35.368987 -9.153693 22.364400 0.000000 58.799014 -0.000000 -3.463330 -70.469859 4.092105 0.000000 2.663041 0.000000 -0.000000 0.000000 -0.000000 -14.950248 14.865726 -13.212307 -0.000000 3.372657 -0.000000 0.000000 0.000000 -0.000000 -4.209984 0.000000 -13.045804 39.443352 -36.023042 -4.046413 180.000037 -86.066496 180.000037 -1.621745 -0.163213 -29.248884 0.000000 0.000000 -0.000000 10.680755 -0.000000 -2.197013 -24.561136 -5.814566 33.474737 -0.000100 -33.329670 -0.000030 9.683323 10.106981 12.850554 0.000000 0.000000 0.000000 0.000000 0.000000 -0.000000 9.988296 12.793099 -42.141524 -0.000000 -0.000000 -0.000000 
-138.359400 75.446500 -23.497600 9.679580 3.333399 136.288363 -25.829947 -24.037026 -28.956627 0.000000 11.793823 0.000000 2.176017 -28.314215 -21.791737 -0.000000 16.643223 0.000000 -0.000000 0.000000 0.000000 34.890372 -5.636087 19.117849 0.000000 51.013372 -0.000000 7.617335 -65.169321 15.956535 -0.000000 4.844089 -0.000000 -0.000000 0.000000 0.000000 -17.996521 14.510039 -16.487979 0.000000 2.203592 -0.000000 0.000000 -0.000000 0.000000 -3.526393 0.000000 -14.246317 41.314085 -39.385570 6.436156 180.000037 -87.233338 -180.000037 1.429610 -1.677504 -24.037867 0.000000 0.000000 -0.000000 10.069801 -0.000000 -2.915799 -24.191030 -5.809318 32.929404 -0.000116 -37.406283 -0.000039 11.143124 8.814214 10.368385 0.000000 0.000000 -0.000000 0.000000 -0.000000 0.000000 9.422776 3.075770 -39.935996 -0.000000 -0.000000 -0.000000 
